<?xml version="1.0" standalone="no"?><!DOCTYPE svg PUBLIC "-//W3C//DTD SVG 1.1//EN" "http://www.w3.org/Graphics/SVG/1.1/DTD/svg11.dtd"><svg t="1621404310206" class="icon" viewBox="0 0 1024 1024" version="1.1" xmlns="http://www.w3.org/2000/svg" p-id="1201" xmlns:xlink="http://www.w3.org/1999/xlink" width="200" height="200"><defs><style type="text/css">@font-face { font-family: Omnes; font-style: normal; font-weight: 500; src: url("chrome-extension://bgkknpjjkdiodnjnkkabgnkfdhcokden/fonts/Omnes-Regular.otf"); }
@font-face { font-family: Omnes; font-weight: 700; src: url("chrome-extension://bgkknpjjkdiodnjnkkabgnkfdhcokden/fonts/Omnes-Semibold.otf"); }
</style></defs><path d="M997.3 831.4c-19.2-31.8-396.8-646.8-422.1-688.2-14.9-23.4-39.6-47.4-64.4-47.4-24.8 0-51.4 20.4-69.9 51C428.4 166 53.3 790.1 30.5 827.2c-12.4 20.1-18.1 37.2-18.9 51.6-0.1 1.1-0.1 2.1-0.1 3.1 0 1.1 0 2.2 0.1 3.3 0.4 7.5 2.3 14.3 5.2 20.5 7.4 14.4 32.8 23.4 66.8 23.4h857.9c27.9 0 53.2-6 63.8-25.2 9.3-17.3 9.3-44.3-8-72.5zM480.1 434.3c0-21.1 15.2-38.5 33.8-38.5 18.7 0 33.8 15.3 33.8 36.4v209.3c0 21.1-15.2 35.4-33.8 35.4-18.7 0-33.8-14-33.8-35V434.3z m34.4 353.8c-20.7 0-37.4-16.5-37.4-37 0-20.4 16.7-37 37.4-37s37.3 16.5 37.3 37c0.1 20.5-16.6 37-37.3 37z" p-id="1202"></path></svg>