<?xml version="1.0" standalone="no"?><!DOCTYPE svg PUBLIC "-//W3C//DTD SVG 1.1//EN" "http://www.w3.org/Graphics/SVG/1.1/DTD/svg11.dtd"><svg t="1630653425923" class="icon" viewBox="0 0 1024 1024" version="1.1" xmlns="http://www.w3.org/2000/svg" p-id="9423" xmlns:xlink="http://www.w3.org/1999/xlink" width="200" height="200"><defs><style type="text/css">@font-face { font-family: Omnes; font-style: normal; font-weight: 500; src: url("chrome-extension://bgkknpjjkdiodnjnkkabgnkfdhcokden/fonts/Omnes-Regular.otf"); }
@font-face { font-family: Omnes; font-weight: 700; src: url("chrome-extension://bgkknpjjkdiodnjnkkabgnkfdhcokden/fonts/Omnes-Semibold.otf"); }
</style></defs><path d="M512 64c247.424 0 448 200.576 448 448S759.424 960 512 960 64 759.424 64 512 264.576 64 512 64z m181.02 266.98c-12.497-12.496-32.759-12.496-45.255 0L512 466.745 376.235 330.981c-12.496-12.497-32.758-12.497-45.254 0-12.497 12.496-12.497 32.758 0 45.254L466.746 512 330.98 647.765c-12.497 12.496-12.497 32.758 0 45.254 12.496 12.497 32.758 12.497 45.254 0l135.766-135.765L647.765 693.02c12.496 12.497 32.758 12.497 45.254 0 12.497-12.496 12.497-32.758 0-45.254L557.256 511.999l135.763-135.764c12.497-12.496 12.497-32.758 0-45.254z" p-id="9424"></path></svg>